<?xml version="1.0" encoding="UTF-8"?>
<svg id="Calque_1" xmlns="http://www.w3.org/2000/svg" version="1.1" xmlns:xlink="http://www.w3.org/1999/xlink" viewBox="0 0 1993.8 334.63">
  <!-- Generator: Adobe Illustrator 30.5.1, SVG Export Plug-In . SVG Version: 2.1.4 Build 3)  -->
  <defs>
    <style>
      .st0 {
        stroke: #7f7f7e;
        stroke-miterlimit: 10;
      }

      .st0, .st1 {
        fill: #7f7f7e;
      }

      .st2 {
        fill: none;
      }

      .st3 {
        fill: url(#Dégradé_sans_nom_2);
      }

      .st4 {
        isolation: isolate;
      }

      .st5 {
        fill: url(#Dégradé_sans_nom_12);
      }

      .st6 {
        clip-path: url(#clippath);
      }

      .st7 {
        fill: #049cd8;
      }
    </style>
    <clipPath id="clippath">
      <polygon class="st2" points="3.53 0 1993.8 0 1990.27 144.29 0 144.29 3.53 0"/>
    </clipPath>
    <linearGradient id="Dégradé_sans_nom_12" data-name="Dégradé sans nom 12" x1="277" y1="766.3" x2="277" y2="763.7" gradientTransform="translate(653.3333 76703.7894) scale(1.5 -100)" gradientUnits="userSpaceOnUse">
      <stop offset="0" stop-color="#049cd8"/>
      <stop offset="1" stop-color="#049cd8" stop-opacity=".2"/>
    </linearGradient>
    <linearGradient id="Dégradé_sans_nom_2" data-name="Dégradé sans nom 2" x1="70.28" y1="121.99" x2="70.28" y2="121.99" gradientUnits="userSpaceOnUse">
      <stop offset="0" stop-color="#b6ff2e"/>
      <stop offset="1" stop-color="#b6ff2e" stop-opacity="0"/>
    </linearGradient>
  </defs>
  <g class="st6">
    <g class="st4">
      <path class="st1" d="M117.75,292.63c-12.32,0-23.47-3.03-33.48-9.09-10.01-6.06-17.99-15.15-23.95-27.27-5.97-12.12-8.95-27.13-8.95-45.02v-47.33c0-17.5,3.22-32.32,9.67-44.44,6.44-12.12,15.34-21.31,26.69-27.56,11.35-6.25,24.43-9.38,39.25-9.38s28.57,3.28,39.54,9.81c10.97,6.54,19.34,15.34,25.11,26.41,5.77,11.06,8.66,23.43,8.66,37.08v3.46h-38.09v-3.46c0-12.12-3.13-21.3-9.38-27.56-6.25-6.25-15.06-9.38-26.4-9.38-10.58,0-19.39,3.56-26.41,10.68-7.02,7.12-10.53,19.53-10.53,37.23v42.71c0,31.17,12.7,46.75,38.09,46.75,11.35,0,19.96-3.08,25.83-9.23,5.86-6.15,8.8-14.23,8.8-24.24h-48.48v-36.36h86.58v102.16h-34.63v-22.51h-5.19c-2.31,7.5-6.74,13.81-13.27,18.9-6.55,5.09-16.36,7.65-29.44,7.65Z"/>
      <path class="st1" d="M238.96,288.59V86.58h38.09v165.65h91.77v36.36h-129.86Z"/>
      <polygon class="st1" points="429.01 227.31 467.11 227.31 467.11 122.79 489.36 122.79 489.36 86.42 407.02 86.42 407.02 122.79 429.01 122.79 429.01 227.31"/>
      <path class="st1" d="M578.89,288.59V122.94h-53.68v-36.36h145.45v36.36h-53.68v165.65h-38.09Z"/>
      <path class="st1" d="M775.14,292.63c-23.09,0-41.37-7.07-54.83-21.21-13.47-14.14-20.2-34.58-20.2-61.32v-45.02c0-25.97,6.73-46.22,20.2-60.75,13.46-14.52,31.75-21.79,54.83-21.79s42.37,6.74,54.98,20.2c12.6,13.47,18.9,31.74,18.9,54.83v5.19h-38.09v-5.19c0-6.35-1.06-12.65-3.17-18.9-2.12-6.25-5.77-11.4-10.97-15.44-5.19-4.04-12.41-6.06-21.64-6.06-8.47,0-15.44,2.07-20.92,6.21-5.49,4.14-9.52,9.62-12.12,16.45-2.59,6.83-3.89,14.29-3.89,22.37v50.79c0,13.09,2.79,23.86,8.37,32.32,5.58,8.47,15.1,12.7,28.57,12.7,9.81,0,17.31-1.92,22.51-5.77,5.19-3.85,8.7-8.85,10.53-15.01,1.83-6.15,2.74-12.7,2.74-19.62v-5.19h38.09v5.19c0,23.86-6.3,42.33-18.9,55.41-12.6,13.09-30.93,19.62-54.98,19.62Z"/>
      <path class="st1" d="M880.47,288.59V86.58h38.09v82.54h65.22v-82.54h38.09v202.01h-38.09v-83.11h-65.22v83.11h-38.09Z"/>
    </g>
  </g>
  <path class="st7" d="M184.02,147.7c.36,2.55.56,5.25.56,8.14v3.46h38.09v-3.46c0-2.78-.18-5.47-.42-8.14h-38.23Z"/>
  <path class="st7" d="M136.1,222.79h48.48c0,10.01-2.93,18.09-8.8,24.24-5.87,6.16-14.48,9.23-25.83,9.23-25.39,0-38.09-15.58-38.09-46.75v-42.71c0-7.28.62-13.63,1.81-19.11h-38.84c-.69,5.12-1.06,10.52-1.06,16.22v47.33c0,17.89,2.98,32.9,8.95,45.02,5.96,12.12,13.95,21.21,23.95,27.27,10,6.06,21.16,9.09,33.48,9.09,13.08,0,22.89-2.55,29.44-7.65,6.54-5.09,10.97-11.4,13.27-18.9h5.19v22.51h34.63v-102.16h-86.58v36.36Z"/>
  <polygon class="st7" points="299.44 147.7 261.35 147.7 261.35 288.59 391.21 288.59 391.21 252.23 299.44 252.23 299.44 147.7"/>
  <polygon class="st7" points="486.51 147.7 448.42 147.7 448.42 252.23 426.16 252.23 426.16 288.59 508.5 288.59 508.5 252.23 486.51 252.23 486.51 147.7"/>
  <rect class="st7" x="601.28" y="147.7" width="38.09" height="140.89"/>
  <path class="st7" d="M833.31,217.6c0,6.93-.91,13.47-2.74,19.62-1.83,6.16-5.34,11.16-10.53,15.01-5.19,3.85-12.7,5.77-22.51,5.77-13.47,0-22.99-4.23-28.57-12.7-5.58-8.46-8.37-19.23-8.37-32.32v-50.79c0-5.09.55-9.91,1.59-14.49h-38.54c-.75,5.48-1.14,11.26-1.14,17.37v45.02c0,26.74,6.73,47.18,20.2,61.32,13.46,14.14,31.75,21.21,54.83,21.21s42.37-6.54,54.98-19.62c12.6-13.08,18.9-31.55,18.9-55.41v-5.19h-38.09v5.19Z"/>
  <path class="st7" d="M832.43,147.7c.57,3.28.88,6.57.88,9.87v5.19h38.09v-5.19c0-3.41-.2-6.67-.48-9.87h-38.5Z"/>
  <polygon class="st7" points="1006.17 147.7 1006.17 169.11 940.96 169.11 940.96 147.7 902.86 147.7 902.86 288.59 940.96 288.59 940.96 205.48 1006.17 205.48 1006.17 288.59 1044.27 288.59 1044.27 147.7 1006.17 147.7"/>
  <rect class="st5" x="1066.88" y="73.89" width="3.9" height="260.25"/>
  <g>
    <path class="st0" d="M442.85,312.95v-1.15c0-.39.07-.67.23-.84.15-.17.34-.25.59-.25s.44.09.59.25c.15.17.23.45.23.84v4.54c0,.4-.07.69-.23.86-.15.17-.34.25-.59.25-.22,0-.4-.08-.55-.23-.15-.16-.24-.41-.26-.76-.06-1.09-.65-2.06-1.77-2.9-1.51-1.16-3.22-1.73-5.14-1.73-1.26,0-2.45.28-3.56.84-.83.4-1.49.9-1.99,1.48-.86,1.01-1.54,2.13-2.04,3.37-.36.91-.55,1.93-.55,3.08v2.86c0,2.44.88,4.56,2.65,6.35,1.76,1.8,3.82,2.7,6.15,2.7,1.4,0,2.66-.3,3.76-.91,1.11-.61,2.19-1.53,3.22-2.76.22-.27.47-.41.74-.41.23,0,.42.07.56.21s.21.32.21.55c0,.3-.28.75-.84,1.36-1.06,1.2-2.26,2.09-3.59,2.69-1.33.61-2.67.91-4.04.91-1.18,0-2.38-.23-3.6-.68-.93-.35-1.71-.76-2.32-1.23s-1.36-1.26-2.25-2.36c-.89-1.11-1.49-2.14-1.82-3.08-.33-.94-.49-1.98-.49-3.11v-3.33c0-1.61.43-3.25,1.3-4.93.86-1.68,2.04-2.97,3.54-3.88,1.49-.9,3.12-1.35,4.87-1.35,2.7,0,5.02.92,6.97,2.76Z"/>
    <path class="st0" d="M485.52,322.16c0,2.18-.44,4.2-1.32,6.07-.88,1.86-2.1,3.31-3.65,4.35-1.55,1.04-3.22,1.56-4.99,1.56-2.64,0-4.96-1.12-6.96-3.36-2.01-2.23-3.01-5.11-3.01-8.61s1-6.39,3.01-8.62c2-2.23,4.32-3.35,6.96-3.35,1.78,0,3.44.52,4.98,1.56,1.55,1.04,2.76,2.48,3.65,4.34.89,1.86,1.34,3.88,1.34,6.07ZM483.86,322.16c0-2.66-.77-5.05-2.32-7.16-1.55-2.11-3.54-3.17-6-3.17-2.3,0-4.26,1.01-5.89,3.03-1.63,2.02-2.44,4.46-2.44,7.31,0,3.04.85,5.52,2.56,7.44,1.71,1.93,3.63,2.89,5.77,2.89,2.45,0,4.45-1.06,6-3.17,1.55-2.11,2.32-4.5,2.32-7.17Z"/>
    <path class="st0" d="M516.47,326.66h-1.87l-6.29-14.31h-.31v19.51h3.02c.39,0,.67.07.84.23.17.15.25.35.25.59s-.09.43-.25.58-.45.23-.84.23h-6.03c-.39,0-.67-.08-.84-.23s-.25-.35-.25-.58c0-.25.09-.44.25-.59.17-.15.45-.23.84-.23h1.38v-19.51h-1.03c-.39,0-.67-.07-.84-.23-.17-.15-.25-.35-.25-.59s.09-.44.25-.59c.17-.15.45-.23.84-.23h4.01l6.19,14.09,6.09-14.09h4.01c.4,0,.69.07.86.23.17.15.25.35.25.59s-.09.44-.25.59c-.17.15-.46.23-.86.23h-1.01v19.51h1.36c.4,0,.69.07.86.23.17.15.25.35.25.59s-.09.43-.25.58-.46.23-.86.23h-6.02c-.39,0-.67-.08-.85-.23-.17-.16-.26-.35-.26-.58,0-.25.08-.44.25-.59.17-.15.45-.23.86-.23h3.02v-19.51h-.35l-6.17,14.31Z"/>
    <path class="st0" d="M556.34,326.66h-1.87l-6.29-14.31h-.31v19.51h3.02c.39,0,.67.07.84.23.17.15.25.35.25.59s-.08.43-.25.58-.45.23-.84.23h-6.03c-.39,0-.67-.08-.84-.23s-.25-.35-.25-.58c0-.25.08-.44.25-.59.17-.15.45-.23.84-.23h1.38v-19.51h-1.03c-.39,0-.67-.07-.84-.23-.17-.15-.25-.35-.25-.59s.08-.44.25-.59c.17-.15.45-.23.84-.23h4.01l6.19,14.09,6.09-14.09h4.01c.4,0,.69.07.86.23.17.15.25.35.25.59s-.08.44-.25.59c-.17.15-.45.23-.86.23h-1.01v19.51h1.36c.4,0,.69.07.86.23.17.15.25.35.25.59s-.08.43-.25.58-.45.23-.86.23h-6.02c-.39,0-.67-.08-.84-.23-.18-.16-.26-.35-.26-.58,0-.25.09-.44.25-.59.17-.15.46-.23.86-.23h3.02v-19.51h-.35l-6.17,14.31Z"/>
    <path class="st0" d="M639.63,333.49l-1.25-1.93c-1.17,1.71-2.67,2.57-4.52,2.57-1.56,0-2.92-.62-4.11-1.85s-1.77-2.74-1.77-4.52c0-1.37.4-2.6,1.2-3.66.8-1.06,1.9-1.8,3.3-2.22-.96-1.55-1.53-2.56-1.72-3.04-.19-.49-.28-.99-.28-1.51,0-1.28.49-2.41,1.46-3.38.97-.97,2.14-1.45,3.5-1.45.44,0,.88.07,1.32.19s.88.33,1.32.6c.56-.28.9-.43,1.03-.43.22,0,.41.08.57.25.16.16.25.36.25.59,0,.16-.04.3-.14.43s-.27.26-.55.41l-1.27.68c-.4-.36-.81-.63-1.23-.81-.42-.17-.86-.26-1.3-.26-.9,0-1.68.33-2.35.99-.67.66-1,1.4-1,2.22s.58,2.19,1.75,4.05l4.52,7.18c.79-1.49,1.41-3.22,1.87-5.18h1.6c.39,0,.67.08.84.23s.25.35.25.58c0,.17-.05.32-.14.47-.1.14-.21.24-.34.29s-.45.08-.95.08c-.62,2.19-1.34,3.89-2.14,5.1l1.11,1.67h1.38c.39,0,.67.07.84.23.17.15.25.35.25.59s-.08.43-.25.58-.45.23-.84.23h-2.22ZM633.18,323.33c-1.09.26-1.95.79-2.6,1.59-.64.79-.96,1.75-.96,2.85,0,1.31.43,2.43,1.3,3.35.86.92,1.83,1.38,2.91,1.38,1.45,0,2.65-.82,3.6-2.45l-4.24-6.72Z"/>
    <path class="st0" d="M715.83,326.66h-1.87l-6.29-14.31h-.31v19.51h3.02c.39,0,.67.07.84.23.17.15.25.35.25.59s-.08.43-.25.58-.45.23-.84.23h-6.03c-.39,0-.67-.08-.84-.23s-.25-.35-.25-.58c0-.25.08-.44.25-.59.17-.15.45-.23.84-.23h1.38v-19.51h-1.03c-.39,0-.67-.07-.84-.23-.17-.15-.25-.35-.25-.59s.08-.44.25-.59c.17-.15.45-.23.84-.23h4.01l6.19,14.09,6.09-14.09h4.01c.4,0,.69.07.86.23.17.15.25.35.25.59s-.08.44-.25.59c-.17.15-.45.23-.86.23h-1.01v19.51h1.36c.4,0,.69.07.86.23.17.15.25.35.25.59s-.08.43-.25.58-.45.23-.86.23h-6.02c-.39,0-.67-.08-.84-.23-.18-.16-.26-.35-.26-.58,0-.25.09-.44.25-.59.17-.15.46-.23.86-.23h3.02v-19.51h-.35l-6.17,14.31Z"/>
    <path class="st0" d="M760,325.88h-10.75l-2.2,5.98h3.13c.39,0,.67.07.84.23.17.15.25.35.25.59s-.08.43-.25.58-.45.23-.84.23h-6.11c-.39,0-.67-.08-.84-.23s-.25-.35-.25-.58c0-.25.08-.44.25-.59.17-.15.45-.23.84-.23h1.27l7.22-19.51h-4.83c-.39,0-.67-.07-.84-.23-.17-.15-.25-.35-.25-.59s.08-.44.25-.59c.17-.15.45-.23.84-.23h8.23l7.98,21.14h1.27c.39,0,.67.07.84.23.17.15.25.35.25.59s-.08.43-.25.58-.45.23-.84.23h-6.09c-.4,0-.69-.08-.86-.23s-.25-.35-.25-.58c0-.25.08-.44.25-.59.17-.15.45-.23.86-.23h3.11l-2.24-5.98ZM759.38,324.24l-4.52-11.89h-.6l-4.38,11.89h9.5Z"/>
    <path class="st0" d="M789.16,323.33v8.53h3.02c.4,0,.69.07.86.23.17.15.25.35.25.59s-.09.43-.25.58-.46.23-.86.23h-6.85c-.39,0-.67-.08-.84-.23s-.25-.35-.25-.58c0-.25.08-.44.25-.59.17-.15.45-.23.84-.23h2.2v-19.51h-2.2c-.39,0-.67-.07-.84-.23-.17-.15-.25-.35-.25-.59s.08-.44.25-.59c.17-.15.45-.23.84-.23h9.89c2.04,0,3.75.65,5.15,1.94,1.39,1.29,2.09,2.74,2.09,4.37,0,1.17-.43,2.27-1.3,3.3-.86,1.03-2.3,1.89-4.33,2.58,1.17.81,2.16,1.71,3,2.73s2.16,3.09,3.99,6.23h1.25c.39,0,.67.07.84.23.17.15.25.35.25.59s-.08.43-.25.58-.45.23-.84.23h-2.18c-2.02-3.62-3.59-6.05-4.7-7.28-1.11-1.23-2.39-2.19-3.83-2.88h-5.2ZM789.16,321.69h4.46c1.43,0,2.72-.26,3.88-.78,1.16-.52,2.01-1.13,2.53-1.83.53-.7.79-1.41.79-2.14,0-1.09-.55-2.13-1.65-3.11-1.09-.98-2.43-1.48-4-1.48h-6.02v9.34Z"/>
    <path class="st0" d="M829.05,324.57v7.28h3.02c.4,0,.69.07.86.23.17.15.25.35.25.59s-.09.43-.25.58-.46.23-.86.23h-6.85c-.39,0-.67-.08-.84-.23s-.25-.35-.25-.58c0-.25.08-.44.25-.59.17-.15.45-.23.84-.23h2.2v-19.51h-2.2c-.39,0-.67-.07-.84-.23-.17-.15-.25-.35-.25-.59s.08-.44.25-.59c.17-.15.45-.23.84-.23h6.85c.4,0,.69.07.86.23.17.15.25.35.25.59s-.09.44-.25.59c-.17.15-.46.23-.86.23h-3.02v10.06l11.29-10.06h-1.79c-.4,0-.69-.07-.86-.23-.17-.15-.25-.35-.25-.59s.08-.44.25-.59c.17-.15.45-.23.86-.23h4.81c.39,0,.67.07.84.23.17.15.25.35.25.59s-.08.44-.25.59c-.17.15-.45.23-.84.23h-.66l-8.99,8.04c1.34.55,2.45,1.23,3.33,2.04s1.73,1.98,2.55,3.48c.47.84,1.32,2.82,2.57,5.94h2.04c.4,0,.69.07.86.23.17.15.25.35.25.59s-.08.43-.25.58-.45.23-.86.23h-3.15c-1.71-4.68-3.15-7.7-4.32-9.04-1.17-1.35-2.63-2.29-4.38-2.83l-3.29,2.96Z"/>
    <path class="st0" d="M868.9,322.49v9.36h12.58v-4.83c0-.39.07-.67.23-.84.15-.17.34-.25.59-.25s.44.09.59.25c.15.17.23.45.23.84v6.46h-18.05c-.39,0-.67-.08-.84-.23s-.25-.35-.25-.58c0-.25.08-.44.25-.59.17-.15.45-.23.84-.23h2.2v-19.51h-2.2c-.39,0-.67-.07-.84-.23-.17-.15-.25-.35-.25-.59s.08-.44.25-.59c.17-.15.45-.23.84-.23h17.19v5.63c0,.39-.07.67-.23.84-.15.17-.34.25-.59.25s-.44-.09-.59-.25c-.15-.17-.23-.45-.23-.84v-3.99h-11.72v8.51h5.86v-1.85c0-.39.08-.67.23-.84s.35-.25.6-.25c.23,0,.43.09.58.25s.23.45.23.84v5.33c0,.39-.08.67-.23.84s-.35.25-.58.25c-.25,0-.45-.09-.6-.25s-.23-.45-.23-.84v-1.85h-5.86Z"/>
    <path class="st0" d="M914.91,312.35v19.51h4.24c.39,0,.67.07.84.23.17.15.25.35.25.59s-.09.43-.25.58-.45.23-.84.23h-10.14c-.39,0-.67-.08-.84-.23s-.25-.35-.25-.58c0-.25.08-.44.25-.59.17-.15.45-.23.84-.23h4.24v-19.51h-6.7v5.66c0,.4-.07.69-.22.86-.15.17-.35.25-.6.25s-.43-.09-.58-.25-.23-.46-.23-.86v-7.3h18.32v7.3c0,.4-.07.69-.23.86-.15.17-.34.25-.59.25s-.44-.09-.59-.25c-.15-.17-.23-.46-.23-.86v-5.66h-6.7Z"/>
    <path class="st0" d="M954.8,312.35v19.51h5.61c.39,0,.67.07.84.23.17.15.25.35.25.59s-.09.43-.25.58-.45.23-.84.23h-12.85c-.39,0-.67-.08-.84-.23s-.25-.35-.25-.58c0-.25.09-.44.25-.59.17-.15.45-.23.84-.23h5.61v-19.51h-5.61c-.39,0-.67-.07-.84-.23-.17-.15-.25-.35-.25-.59s.09-.44.25-.59c.17-.15.45-.23.84-.23h12.85c.39,0,.67.07.84.23.17.15.25.35.25.59s-.09.44-.25.59c-.17.15-.45.23-.84.23h-5.61Z"/>
    <path class="st0" d="M1001.85,333.49h-2.1l-12.05-20.38v18.75h3.02c.4,0,.69.07.86.23.17.15.25.35.25.59s-.08.43-.25.58-.45.23-.86.23h-6.02c-.4,0-.69-.08-.86-.23s-.25-.35-.25-.58c0-.25.09-.44.25-.59.17-.15.46-.23.86-.23h1.36v-19.51h-2.2c-.39,0-.67-.07-.84-.23-.17-.15-.25-.35-.25-.59s.09-.44.25-.59c.17-.15.45-.23.84-.23h4.28l12.07,20.42v-18.78h-3.02c-.39,0-.67-.07-.84-.23-.17-.15-.25-.35-.25-.59s.08-.44.25-.59c.16-.15.44-.23.84-.23h6.03c.39,0,.67.07.84.23.17.15.25.35.25.59s-.08.44-.25.59c-.17.15-.45.23-.84.23h-1.38v21.14Z"/>
    <path class="st0" d="M1042.6,325.04v7.01c-1.25.69-2.49,1.21-3.73,1.56-1.24.35-2.48.53-3.71.53-1.75,0-3.29-.26-4.63-.78-1.33-.52-2.45-1.25-3.38-2.18s-1.64-1.98-2.15-3.13c-.51-1.16-.77-2.62-.77-4.4v-3c0-1.79.44-3.54,1.34-5.22.89-1.7,2.1-2.99,3.65-3.89s3.23-1.34,5.04-1.34c2.63,0,4.86.72,6.68,2.16,0-.63.02-1.02.07-1.15.05-.13.14-.25.28-.34.14-.1.31-.15.49-.15.23,0,.43.09.58.25s.23.45.23.84v3.7c0,.4-.08.69-.23.85-.16.16-.35.24-.58.24-.22,0-.4-.07-.55-.23-.15-.15-.23-.41-.25-.79-.08-1.1-.79-2.01-2.15-2.71-1.35-.7-2.83-1.05-4.43-1.05-1.51,0-2.87.33-4.08.98-1.21.65-2.35,1.9-3.4,3.75-.7,1.21-1.05,2.58-1.05,4.11v2.98c0,2.71.83,4.87,2.49,6.46s3.95,2.39,6.87,2.39c.99,0,1.9-.11,2.74-.31s1.83-.57,2.96-1.09v-6.05h-5.63c-.39,0-.67-.07-.84-.23-.17-.15-.25-.35-.25-.59s.09-.45.25-.6.45-.23.84-.23l7.86.02c.39,0,.67.07.84.23.17.15.25.35.25.59,0,.17-.05.32-.16.47s-.22.24-.35.28c-.13.05-.52.07-1.17.07Z"/>
  </g>
  <path class="st3" d="M70.28,121.99"/>
</svg>