<?xml version="1.0" encoding="UTF-8"?>
<svg id="Calque_1" data-name="Calque 1" xmlns="http://www.w3.org/2000/svg" xmlns:xlink="http://www.w3.org/1999/xlink" viewBox="0 0 150 150">
  <defs>
    <style>
      .cls-1 {
        fill: none;
      }

      .cls-2 {
        isolation: isolate;
      }

      .cls-3 {
        fill: #7f7f7e;
      }

      .cls-4 {
        clip-path: url(#clippath);
      }

      .cls-5 {
        fill: #049cd8;
      }
    </style>
    <clipPath id="clippath">
      <polygon class="cls-1" points="-6.17 -30.71 1143.59 -30.71 1141.55 52.65 -8.21 52.65 -6.17 -30.71"/>
    </clipPath>
  </defs>
  <g class="cls-4">
    <g class="cls-2">
      <path class="cls-3" d="M59.81,138.34c-25.17.26-39.19-22.46-38.35-47.01.42-14.76-2.16-40.8,5.59-53.01,10.49-21.67,41.31-26.89,60.93-15.67,13.67,7.98,20.06,22.95,19.51,38.68h-22c.32-7.07-1.38-14.17-5.42-17.92-7.01-7.33-23.34-7.37-30.51.75-8.67,7.13-5.55,34.61-6.08,46.18,0,18.01,7.34,27.01,22,27.01,12.49.19,19.99-7.32,20.01-19.34h-28.01v-21h50.02v59.02h-20.01v-13h-3c-3.69,10.75-11.84,15.47-24.68,15.34h0Z"/>
    </g>
  </g>
  <path class="cls-5" d="M70.41,98h28.01c0,5.78-1.69,10.45-5.08,14-3.39,3.56-8.36,5.33-14.92,5.33-14.67,0-22-9-22-27.01v-24.67c0-4.21.36-7.87,1.05-11.04h-22.44c-.4,2.96-.61,6.08-.61,9.37v27.34c0,10.33,1.72,19.01,5.17,26.01,3.44,7,8.06,12.25,13.84,15.75,5.78,3.5,12.22,5.25,19.34,5.25,7.56,0,13.22-1.47,17.01-4.42,3.78-2.94,6.34-6.59,7.67-10.92h3v13h20.01v-59.02h-50.02v21h0Z"/>
</svg>