<svg xmlns="http://www.w3.org/2000/svg" xmlns:xlink="http://www.w3.org/1999/xlink" width="261" zoomAndPan="magnify" viewBox="0 0 195.75 119.999999" height="160" preserveAspectRatio="xMidYMid meet" version="1.0"><defs><clipPath id="c034a36b26"><path d="M 0 0.078125 L 195.5 0.078125 L 195.5 119.921875 L 0 119.921875 Z M 0 0.078125 " clip-rule="nonzero"/></clipPath><clipPath id="e3232cc30a"><path d="M 0 0.078125 L 195.5 0.078125 L 195.5 119.921875 L 0 119.921875 Z M 0 0.078125 " clip-rule="nonzero"/></clipPath><clipPath id="c0afd98be0"><rect x="0" width="196" y="0" height="120"/></clipPath><clipPath id="e5928a17aa"><path d="M 38 45.34375 L 74 45.34375 L 74 68 L 38 68 Z M 38 45.34375 " clip-rule="nonzero"/></clipPath><clipPath id="42cf3ea135"><path d="M 38 66 L 50 66 L 50 74.554688 L 38 74.554688 Z M 38 66 " clip-rule="nonzero"/></clipPath></defs><g clip-path="url(#c034a36b26)"><path fill="#ffffff" d="M 0 0.078125 L 195.5 0.078125 L 195.5 119.921875 L 0 119.921875 Z M 0 0.078125 " fill-opacity="1" fill-rule="nonzero"/><path fill="#ffffff" d="M 0 0.078125 L 195.5 0.078125 L 195.5 119.921875 L 0 119.921875 Z M 0 0.078125 " fill-opacity="1" fill-rule="nonzero"/><g transform="matrix(1, 0, 0, 1, 0, 0.000000000000017986)"><g clip-path="url(#c0afd98be0)"><g clip-path="url(#e3232cc30a)"><rect x="-43.065" width="281.88" fill="#265a72" height="172.799998" y="-26.4" fill-opacity="1"/></g></g></g></g><g clip-path="url(#e5928a17aa)"><path fill="#ffffff" d="M 70.511719 52.523438 C 65.191406 58.960938 55.90625 66.253906 47.476562 67.691406 C 41.78125 68.664062 38.1875 66.441406 38.960938 60.332031 C 40.433594 48.667969 57.476562 46.035156 63.53125 55.992188 C 63.773438 56.394531 63.988281 57.027344 64.238281 57.367188 C 64.292969 57.441406 64.320312 57.535156 64.4375 57.503906 C 66.621094 55.425781 68.929688 53.3125 70.777344 50.925781 C 71.46875 50.027344 73.308594 47.664062 72.261719 46.605469 C 71.214844 45.546875 67.976562 46.078125 66.640625 46.285156 C 65.144531 46.515625 63.679688 46.933594 62.199219 47.226562 L 62.070312 47.359375 C 62.054688 48.5 60.980469 49.292969 59.882812 48.816406 C 57.976562 47.984375 59.484375 45.464844 61.28125 46.386719 C 61.582031 46.539062 61.699219 46.824219 61.996094 46.9375 C 63.570312 46.46875 65.210938 45.992188 66.832031 45.699219 C 68.449219 45.40625 72.253906 44.757812 73.15625 46.582031 C 74.058594 48.40625 71.617188 51.195312 70.515625 52.527344 Z M 70.511719 52.523438 " fill-opacity="1" fill-rule="nonzero"/></g><path fill="#ffffff" d="M 96.449219 73.863281 L 96.449219 56.679688 C 96.386719 50.203125 104.800781 47.222656 108.765625 52.460938 C 111.347656 55.867188 109.703125 63.335938 110.171875 67.589844 C 110.453125 70.152344 113.675781 71.433594 115.726562 69.835938 C 116.40625 69.300781 117.117188 68.027344 117.117188 67.160156 L 117.117188 49.894531 L 120.417969 49.894531 L 120.417969 68.019531 C 120.417969 69.449219 118.980469 71.550781 117.890625 72.429688 C 113.863281 75.667969 107.390625 73.265625 106.804688 68.085938 C 106.40625 64.5625 107.019531 60.378906 106.785156 56.769531 C 106.617188 54.234375 104.476562 52.429688 101.957031 53.441406 C 100.996094 53.824219 99.832031 55.203125 99.832031 56.253906 L 99.832031 73.863281 L 96.445312 73.863281 Z M 96.449219 73.863281 " fill-opacity="1" fill-rule="nonzero"/><path fill="#ffffff" d="M 85.808594 49.808594 C 93.628906 50.527344 96.230469 61.089844 89.664062 65.503906 C 88.773438 66.105469 87.796875 66.425781 86.808594 66.808594 L 91.667969 73.949219 L 87.5 73.949219 L 82.835938 67.023438 L 73.828125 67.035156 C 73.21875 67.054688 72.558594 67.898438 72.558594 68.457031 L 72.558594 73.949219 L 69.171875 73.949219 L 69.171875 68.195312 C 69.171875 65.492188 71.789062 63.710938 74.25 63.5625 C 77.867188 63.351562 81.894531 63.886719 85.457031 63.5625 C 89.332031 63.21875 91.371094 58.371094 89.011719 55.261719 C 88.367188 54.410156 86.636719 53.183594 85.542969 53.183594 L 73.167969 53.183594 L 73.167969 49.808594 Z M 85.808594 49.808594 " fill-opacity="1" fill-rule="nonzero"/><path fill="#ffffff" d="M 151.511719 73.949219 L 147.863281 73.949219 L 144.78125 65.203125 L 133.570312 65.203125 C 131.417969 65.476562 130.132812 66.671875 129.359375 68.621094 C 128.675781 70.347656 128.242188 72.195312 127.625 73.945312 L 123.976562 73.945312 C 124.804688 71.738281 125.394531 69.359375 126.257812 67.171875 C 127.183594 64.824219 128.925781 63.019531 131.363281 62.222656 C 131.683594 62.117188 132.609375 61.828125 132.878906 61.828125 L 143.695312 61.828125 C 143.550781 61.253906 143.378906 60.679688 143.199219 60.117188 C 142.785156 58.84375 141.953125 56.042969 141.214844 55.085938 C 140.589844 54.277344 138.957031 53.175781 137.917969 53.175781 L 133.445312 53.175781 L 133.445312 49.800781 L 138.351562 49.800781 C 140.945312 49.800781 144.34375 52.667969 145.085938 55.121094 L 151.511719 73.941406 Z M 151.511719 73.949219 " fill-opacity="1" fill-rule="nonzero"/><path fill="#ffffff" d="M 155.074219 49.808594 C 159.757812 49.757812 164.070312 52.589844 166.007812 56.789062 C 169.054688 63.402344 165.589844 71.148438 158.707031 73.371094 C 157.488281 73.765625 156.339844 73.839844 155.078125 73.953125 L 155.078125 70.578125 C 158.152344 70.496094 161.070312 68.824219 162.582031 66.15625 C 165.875 60.363281 161.691406 53.246094 155.078125 53.1875 L 155.078125 49.8125 Z M 155.074219 49.808594 " fill-opacity="1" fill-rule="nonzero"/><path fill="#ffffff" d="M 182.609375 49.808594 L 182.609375 53.183594 C 179.203125 53.171875 176.09375 55.277344 174.714844 58.34375 C 172.136719 64.089844 176.433594 70.40625 182.609375 70.574219 L 182.609375 73.949219 C 181.734375 73.816406 180.871094 73.839844 180.003906 73.644531 C 175.003906 72.554688 170.910156 67.960938 170.621094 62.832031 C 170.214844 55.683594 175.398438 49.902344 182.613281 49.808594 Z M 182.609375 49.808594 " fill-opacity="1" fill-rule="nonzero"/><path fill="#ffffff" d="M 35.300781 60.191406 L 35.300781 63.5625 L 18.492188 63.5625 C 17.738281 63.5625 16.277344 64.855469 16.277344 65.597656 L 16.277344 73.949219 L 12.890625 73.949219 L 12.890625 65.167969 C 12.890625 63.0625 16.054688 60.191406 18.144531 60.191406 Z M 35.300781 60.191406 " fill-opacity="1" fill-rule="nonzero"/><path fill="#ffffff" d="M 12.976562 49.808594 L 35.300781 49.808594 L 35.300781 53.183594 L 12.976562 53.183594 Z M 12.976562 49.808594 " fill-opacity="1" fill-rule="nonzero"/><path fill="#ffffff" d="M 50.761719 73.949219 L 52.355469 73.765625 C 57.105469 73.046875 57.851562 69.140625 60.613281 66.074219 C 61.917969 64.632812 63.523438 63.371094 65.175781 62.355469 C 64.992188 66.492188 62.570312 70.375 58.925781 72.351562 C 56.394531 73.722656 53.617188 74.082031 50.757812 73.953125 Z M 50.761719 73.949219 " fill-opacity="1" fill-rule="nonzero"/><g clip-path="url(#42cf3ea135)"><path fill="#ffffff" d="M 40.722656 69.757812 C 42.339844 71.757812 44.75 73.199219 47.179688 74.011719 L 49.71875 74.554688 C 45.566406 74.554688 41.199219 72.011719 39.429688 68.238281 C 39.28125 67.925781 39.0625 67.445312 38.988281 67.121094 C 38.96875 67.03125 38.875 66.839844 39.035156 66.855469 C 39.445312 67.882812 40.027344 68.902344 40.722656 69.757812 Z M 40.722656 69.757812 " fill-opacity="1" fill-rule="nonzero"/></g><path fill="#ffffff" d="M 65.265625 59.671875 L 66.789062 58.289062 C 66.933594 57.992188 66.496094 57.65625 67 57.203125 C 67.464844 56.773438 67.722656 57.175781 68.042969 57.035156 C 68.5 56.601562 68.914062 56.019531 69.4375 55.691406 C 69.574219 55.839844 68.34375 57.148438 68.261719 57.339844 C 68.167969 57.570312 68.460938 57.972656 68.046875 58.328125 C 67.683594 58.636719 67.359375 58.417969 67.097656 58.5 C 66.664062 58.640625 65.90625 59.65625 65.269531 59.671875 Z M 65.265625 59.671875 " fill-opacity="1" fill-rule="nonzero"/><path fill="#ffffff" d="M 38.863281 66.597656 L 38.949219 66.597656 L 38.949219 66.765625 L 38.863281 66.765625 Z M 38.863281 66.597656 " fill-opacity="1" fill-rule="nonzero"/></svg>